<svg xmlns="http://www.w3.org/2000/svg" version="1.1" xmlns:xlink="http://www.w3.org/1999/xlink" width="1000" height="1000"><g clip-path="url(#SvgjsClipPath1137)"><rect width="1000" height="1000" fill="#ffffff"></rect><g transform="matrix(3,0,0,3,71,50)"><svg xmlns="http://www.w3.org/2000/svg" version="1.1" xmlns:xlink="http://www.w3.org/1999/xlink" width="286" height="300"><svg width="286" height="300" viewBox="0 0 286 300" fill="none" xmlns="http://www.w3.org/2000/svg">
<path d="M0 142.682C0 63.8808 63.8808 0 142.682 0C221.483 0 285.363 63.8808 285.363 142.682V157.318C285.363 236.119 221.483 300 142.682 300C63.8808 300 0 236.119 0 157.318V142.682Z" fill="white"></path>
<path d="M91.282 24.1699C87.243 24.6895 84.1961 26.2248 81.1727 29.2245C79.4012 30.9723 78.8344 31.7282 77.9604 33.5233C77.3463 34.7043 76.6614 36.523 76.4252 37.5386C76.0236 39.3101 76 43.6089 76 150.63C76 256.612 76.0236 261.95 76.4252 263.532C76.6614 264.43 77.3227 266.201 77.9368 267.43C78.858 269.319 79.3304 269.981 81.1727 271.799C82.9678 273.594 83.6764 274.138 85.566 275.059C89.8884 277.185 84.3378 276.996 143.198 276.996C202.059 276.996 196.508 277.185 200.83 275.059C202.72 274.138 203.429 273.594 205.224 271.799C207.066 269.981 207.538 269.319 208.46 267.43C209.074 266.201 209.735 264.43 209.971 263.532C210.373 261.95 210.396 256.612 210.396 150.512C210.396 44.412 210.373 39.0739 209.971 37.4914C209.735 36.5702 209.074 34.8224 208.46 33.5941C207.538 31.7046 207.066 31.0432 205.224 29.2245C202.791 26.7916 200.523 25.4453 197.358 24.5478L195.516 24.0281L144.143 24.0045C115.894 23.9809 92.1087 24.0518 91.282 24.1699ZM154.725 40.7273C155.15 41.1525 155.079 42.9476 154.63 43.3727C154.299 43.7034 152.953 43.7506 143.198 43.7506C133.443 43.7506 132.097 43.7034 131.766 43.3727C131.317 42.9476 131.247 41.1525 131.672 40.7273C132.073 40.3258 154.323 40.3258 154.725 40.7273ZM198.468 150.512V240.503H143.198H87.928V150.512V60.5207H143.198H198.468V150.512ZM144.852 248.321C149.481 249.054 153.095 252.691 153.874 257.368C154.748 262.682 151.205 268.044 145.914 269.437C139.773 271.02 133.632 267.005 132.546 260.674C131.577 255.029 135.663 249.266 141.309 248.321C143.104 248.038 143.127 248.038 144.852 248.321Z" fill="#017AF6"></path>
</svg></svg></g></g><defs><clipPath id="SvgjsClipPath1137"><rect width="1000" height="1000" x="0" y="0" rx="300" ry="300"></rect></clipPath></defs></svg>