<svg width="128" height="128" viewBox="0 0 128 128" fill="none" xmlns="http://www.w3.org/2000/svg">
<path d="M33.4133 64.128C33.2857 63.903 33.1035 63.7138 32.8836 63.5777C32.6636 63.4416 32.4129 63.3631 32.1547 63.3493H31.184C30.9276 63.3648 30.6791 63.4442 30.4611 63.5802C30.2432 63.7162 30.0627 63.9045 29.936 64.128L22.208 80.2613C21.9893 80.6827 22.2293 80.9973 22.7093 80.9973H24.496C25.2 80.9973 25.5253 80.672 25.712 80.2827C25.9093 79.8933 26.3307 79.0347 26.4053 78.864C26.512 78.624 26.848 78.4853 27.3387 78.4853H35.6533C36.128 78.4853 36.4427 78.5707 36.5867 78.864C36.6827 79.0507 37.1093 79.8187 37.312 80.2293C37.418 80.4677 37.5944 80.668 37.8175 80.8034C38.0405 80.9387 38.2996 81.0027 38.56 80.9867H41.152C41.6267 80.9867 41.8453 80.6187 41.6747 80.2827C41.4933 79.9573 33.4133 64.128 33.4133 64.128ZM28.5387 75.9893C28.064 75.9893 27.8347 75.632 28.0373 75.2L31.0827 68.6827C31.2907 68.2507 31.616 68.2507 31.808 68.6827L34.768 75.2C34.9653 75.632 34.736 75.9893 34.256 75.9893H28.5387ZM93.0987 64.2507V80.256C93.0987 80.6987 93.488 80.992 93.968 80.992H96.08C96.5547 80.992 96.9493 80.688 96.9493 80.2133V64.224C96.9493 63.7493 96.6347 63.3547 96.16 63.3547H93.968C93.488 63.3493 93.0987 63.6427 93.0987 64.2507ZM57.7333 74.2773C57.4613 73.888 57.616 73.456 58.0693 73.312C58.0693 73.312 59.8933 72.768 60.768 71.9787C61.648 71.2 62.08 70.0587 62.08 68.5867C62.1041 67.7452 61.9286 66.91 61.568 66.1493C61.2375 65.494 60.741 64.9368 60.128 64.5333C59.4369 64.0963 58.6727 63.7873 57.872 63.6213C56.992 63.4347 55.8133 63.3707 55.8133 63.3707C55.2359 63.3458 54.658 63.3316 54.08 63.328H45.3067C45.0765 63.3294 44.8562 63.4214 44.6935 63.5842C44.5308 63.7469 44.4387 63.9672 44.4373 64.1973V80.1867C44.4373 80.6613 44.8267 80.9653 45.3067 80.9653H47.376C47.8507 80.9653 48.2453 80.6613 48.2453 80.1867V73.824C48.2453 73.824 48.256 73.824 48.256 73.8133L52.192 73.8027C52.6667 73.8027 53.2853 74.128 53.568 74.5173L57.6533 80.2613C58.032 80.7733 58.3893 80.9653 58.8693 80.9653H61.5787C62.0533 80.9653 62.1333 80.512 61.968 80.2827C61.7973 80.08 57.7333 74.2773 57.7333 74.2773ZM56.0747 71.024C55.6999 71.0997 55.3203 71.1496 54.9387 71.1733C54.3611 71.1947 53.7833 71.2053 53.2053 71.2053H49.136C48.9059 71.2039 48.6856 71.1119 48.5228 70.9492C48.3601 70.7864 48.2681 70.5661 48.2667 70.336V67.0933C48.2667 66.6187 48.656 66.224 49.136 66.224H53.2C53.6747 66.224 54.4587 66.2453 54.9333 66.256C54.9333 66.256 55.5413 66.2773 56.0693 66.4053C56.5277 66.4888 56.9636 66.6668 57.3493 66.928C57.6418 67.1241 57.8744 67.3973 58.0213 67.7173C58.1569 68.0324 58.2269 68.3717 58.2269 68.7147C58.2269 69.0576 58.1569 69.397 58.0213 69.712C57.8759 70.033 57.643 70.3065 57.3493 70.5013C56.9661 70.7635 56.5317 70.9417 56.0747 71.024ZM119.024 63.3493C118.549 63.3493 118.155 63.664 118.155 64.128V74.3627C118.155 74.8373 117.883 74.9493 117.547 74.6133L107.301 63.9893C107.112 63.789 106.884 63.6297 106.631 63.5214C106.378 63.4131 106.105 63.3582 105.829 63.36H103.899C103.291 63.36 103.029 63.6853 103.029 64.0107V80.3733C103.029 80.6987 103.344 81.0133 103.819 81.0133H105.749C106.224 81.0133 106.56 80.752 106.56 80.3093L106.571 69.5307C106.571 69.056 106.843 68.944 107.179 69.2907L117.867 80.3947C118.055 80.5995 118.286 80.7608 118.543 80.8677C118.8 80.9745 119.077 81.0242 119.355 81.0133H120.805C121.035 81.0119 121.256 80.9199 121.419 80.7572C121.581 80.5944 121.673 80.3741 121.675 80.144V64.2187C121.673 63.9885 121.581 63.7682 121.419 63.6055C121.256 63.4428 121.035 63.3507 120.805 63.3493H119.024ZM77.2373 73.3227C77.008 73.744 76.6187 73.7333 76.3893 73.3227L71.3813 64.128C71.2655 63.8934 71.0861 63.696 70.8636 63.5583C70.641 63.4207 70.3843 63.3483 70.1227 63.3493H67.4027C67.1725 63.3507 66.9522 63.4428 66.7895 63.6055C66.6268 63.7682 66.5347 63.9885 66.5333 64.2187V80.1973C66.5333 80.672 66.848 80.9973 67.4027 80.9973H69.0933C69.568 80.9973 69.9147 80.6933 69.9147 80.24C69.9147 80.0213 69.9253 68.6187 69.936 68.6187C69.9573 68.6187 76.192 80.2293 76.192 80.2293C76.2379 80.324 76.3095 80.4039 76.3986 80.4597C76.4877 80.5156 76.5908 80.5452 76.696 80.5452C76.8012 80.5452 76.9043 80.5156 76.9934 80.4597C77.0825 80.4039 77.1542 80.324 77.2 80.2293C77.2 80.2293 83.488 68.64 83.4987 68.64C83.52 68.64 83.5093 79.8933 83.5093 80.2293C83.5093 80.6933 83.8773 80.9867 84.3573 80.9867H86.2987C86.7733 80.9867 87.168 80.7467 87.168 80.1173V64.2133C87.1666 63.9832 87.0746 63.7629 86.9118 63.6002C86.7491 63.4374 86.5288 63.3454 86.2987 63.344H83.696C83.4298 63.3348 83.1663 63.401 82.9361 63.535C82.7058 63.6689 82.5182 63.8653 82.3947 64.1013L77.2373 73.3227ZM0 72.1547C0 80.7733 8.816 81.2053 10.5813 81.2053C16.4373 81.2053 18.9067 79.6213 19.008 79.5573C19.2604 79.4209 19.4699 79.217 19.6131 78.9683C19.7563 78.7197 19.8274 78.4361 19.8187 78.1493V72.1973C19.8194 72.0662 19.7941 71.9362 19.7442 71.8148C19.6943 71.6935 19.6209 71.5833 19.5281 71.4905C19.4354 71.3978 19.3252 71.3243 19.2038 71.2745C19.0825 71.2246 18.9525 71.1993 18.8213 71.2H11.472C10.9173 71.2 10.56 71.6427 10.56 72.1973V72.816C10.56 73.3707 10.9173 73.8133 11.472 73.8133H15.7227C15.9207 73.8133 16.1106 73.892 16.2506 74.032C16.3907 74.1721 16.4693 74.362 16.4693 74.56V77.3333C15.632 77.68 11.808 78.7947 8.73067 78.0587C4.272 76.9973 3.92533 73.312 3.92533 72.2133C3.92533 71.2907 4.208 66.6507 9.68 66.1867C14.112 65.808 17.0293 67.5947 17.0613 67.616C17.584 67.888 18.1227 67.6907 18.416 67.1413L18.9707 66.0267C19.2 65.5733 19.12 65.0933 18.56 64.7147C18.528 64.6933 15.4133 63.0133 10.592 63.0133C0.293333 63.0027 0 71.2213 0 72.1547ZM118.048 58.9387H106.501C106.08 58.9387 105.712 58.7307 105.504 58.3627C105.296 57.9947 105.296 57.584 105.504 57.216L111.285 47.2213C111.384 47.044 111.529 46.8968 111.704 46.7953C111.88 46.6939 112.08 46.642 112.283 46.6453C112.485 46.642 112.685 46.6939 112.861 46.7953C113.037 46.8968 113.182 47.044 113.28 47.2213L119.061 57.216C119.169 57.388 119.226 57.5866 119.226 57.7893C119.226 57.9921 119.169 58.1907 119.061 58.3627C118.957 58.5386 118.809 58.6844 118.631 58.7854C118.454 58.8864 118.252 58.9393 118.048 58.9387ZM125.984 77.3227C127.088 77.3227 128 78.224 128 79.3387C127.999 79.8729 127.786 80.3849 127.408 80.7626C127.03 81.1404 126.518 81.3533 125.984 81.3547C125.45 81.3533 124.938 81.1404 124.56 80.7626C124.182 80.3849 123.969 79.8729 123.968 79.3387C123.971 78.8049 124.184 78.2937 124.562 77.9162C124.939 77.5388 125.45 77.3255 125.984 77.3227ZM125.995 81.056C126.917 81.056 127.621 80.3093 127.621 79.344C127.621 78.3787 126.928 77.632 125.995 77.632C125.061 77.632 124.357 78.3787 124.357 79.344C124.357 80.304 125.051 81.056 125.995 81.056ZM125.216 78.16H126.117C126.661 78.16 126.928 78.3787 126.928 78.8213C126.928 79.2 126.688 79.472 126.32 79.472L126.992 80.512H126.581L125.92 79.472H125.595V80.512H125.205V78.16H125.216ZM125.605 79.168H126.059C126.352 79.168 126.544 79.104 126.544 78.8C126.544 78.528 126.304 78.4533 126.059 78.4533H125.605V79.168Z" fill="currentColor"/>
</svg>
