<svg width="128" height="128" viewBox="0 0 128 128" fill="none" xmlns="http://www.w3.org/2000/svg">
<g clip-path="url(#clip0_328_220)">
<path fill-rule="evenodd" clip-rule="evenodd" d="M8.60735 68.0514C9.18326 68.4665 9.82107 68.7881 10.4972 69.0043C11.8353 69.4267 13.2711 69.4264 14.6091 69.0036C15.289 68.7883 15.9306 68.4669 16.5102 68.0514C17.0947 67.6306 17.6084 67.1196 18.0322 66.5373C18.8622 65.3905 19.308 64.0105 19.3059 62.5949C19.3059 61.8996 19.201 61.201 18.9872 60.529C18.5506 59.1532 17.6831 57.9542 16.5129 57.1091C15.934 56.6921 15.2925 56.3698 14.6124 56.1542C13.2722 55.7296 11.8336 55.7293 10.4933 56.1536C9.12226 56.5926 7.92899 57.4613 7.09 58.6311C6.6742 59.2106 6.3528 59.8523 6.13774 60.5323C5.92525 61.2043 5.82033 61.9016 5.82033 62.5949C5.82033 63.2881 5.92458 63.9781 6.13708 64.6441C6.57395 66.0153 7.43996 67.2098 8.60735 68.0514ZM23.2185 29.5643H1.88184L12.5724 53.7849L23.2185 29.5643Z" fill="currentColor"/>
<path fill-rule="evenodd" clip-rule="evenodd" d="M29.9893 87.9431C29.9886 88.6004 29.8591 89.2513 29.6081 89.8589C29.099 91.0845 28.1251 92.0584 26.8995 92.5675C26.2919 92.8183 25.641 92.9476 24.9837 92.948H23.969C23.3142 92.948 22.6588 92.8179 22.0532 92.5675C20.8274 92.0587 19.8533 91.0847 19.3445 89.8589C19.0937 89.2513 18.9645 88.6004 18.964 87.9431L18.9554 76.5904L7.4082 76.5745V85.1454C7.4082 86.8885 7.75617 88.6323 8.42155 90.2427C9.09176 91.8585 10.073 93.3269 11.3095 94.5643C12.5468 95.8005 14.0149 96.7815 15.6305 97.4516C17.247 98.1194 18.9787 98.4639 20.7278 98.4656H27.867C29.6101 98.4656 31.3533 98.1177 32.9642 97.4516C34.5799 96.7816 36.048 95.8006 37.2852 94.5643C38.5219 93.327 39.5031 91.8586 40.1732 90.2427C40.8408 88.6261 41.1851 86.8944 41.1865 85.1454V29.6154L29.984 29.6313L29.9893 87.9431ZM115.334 76.5904L115.325 86.6701C115.325 87.3248 115.194 87.9809 114.945 88.5859C114.693 89.1929 114.324 89.7445 113.859 90.2095C113.395 90.6745 112.843 91.0433 112.235 91.2945C111.628 91.5455 110.977 91.675 110.32 91.6757H109.306C108.648 91.675 107.997 91.5455 107.39 91.2945C106.782 91.0433 106.231 90.6745 105.766 90.2095C105.303 89.7466 104.931 89.1908 104.681 88.5859C104.43 87.9809 104.299 87.3255 104.299 86.6701L104.305 29.6313L93.1028 29.6154L93.1068 97.0366H126.109L126.119 76.5745L115.334 76.5904ZM83.7675 66.4895C83.2143 65.1799 82.4104 63.9911 81.4009 62.99C80.4579 62.0548 79.3258 61.3321 78.0806 60.8703C79.1166 60.3731 80.0677 59.7156 80.8988 58.922C81.7455 58.1178 82.4926 57.1649 82.9959 56.0905C83.5013 55.0066 83.7633 53.8253 83.7635 52.6294L83.7702 40.3584C83.7702 38.94 83.4873 37.5209 82.9468 36.2121C82.4062 34.9032 81.6047 33.7053 80.6033 32.7046C79.6033 31.7038 78.406 30.9017 77.0978 30.3598C75.7896 29.8179 74.3719 29.5344 72.9528 29.5344H50.6752V97.0399H73.8008C75.9402 97.0397 78.0316 96.4053 79.8104 95.2167C81.5893 94.0281 82.9759 92.3387 83.7948 90.3622C84.3372 89.0473 84.6169 87.6389 84.6182 86.2165C84.6182 81.0429 84.6049 75.8699 84.6182 70.697C84.6181 69.2518 84.3289 67.8212 83.7675 66.4895ZM61.545 35.3501L67.408 35.3302C68.0654 35.3297 68.7164 35.459 69.3238 35.7106C69.9312 35.9622 70.4829 36.3312 70.9473 36.7964C71.4115 37.26 71.7827 37.8151 72.0331 38.4201C72.2834 39.025 72.4116 39.6804 72.4142 40.3358L72.4454 53.8699C72.4458 54.6922 72.202 55.4961 71.7451 56.1799C71.2883 56.8636 70.6388 57.3964 69.8789 57.7108C69.3742 57.918 68.8341 58.0256 68.2885 58.0275L61.545 58.0534V35.3501ZM72.553 88.2937C72.3443 88.7981 72.0381 89.2563 71.6521 89.6423C71.266 90.0282 70.8077 90.3342 70.3032 90.5428C69.7987 90.7507 69.2585 90.8583 68.7128 90.8596L61.5457 90.8855V64.1189L67.8323 64.0989C68.4897 64.0981 69.1409 64.2272 69.7483 64.4788C70.3557 64.7305 70.9074 65.0996 71.3717 65.5652C71.8345 66.028 72.2071 66.5838 72.4574 67.1888C72.7077 67.7937 72.8372 68.4492 72.8386 69.1046L72.8698 86.7033C72.8691 87.249 72.7615 87.7893 72.553 88.2937Z" fill="currentColor"/>
</g>
<defs>
<clipPath id="clip0_328_220">
<rect width="128" height="128" fill="currentColor"/>
</clipPath>
</defs>
</svg>
