<svg width="128" height="128" viewBox="0 0 128 128" fill="none" xmlns="http://www.w3.org/2000/svg">
<path d="M10 52.141H21.585V63.7261H10V52.141Z" fill="currentColor"/>
<path d="M22.1329 52.141H33.7179V63.7261H22.1329V52.141Z" fill="currentColor"/>
<path d="M10 64.2739H21.585V75.859H10V64.2739Z" fill="currentColor"/>
<path d="M22.1329 64.2739H33.7179V75.859H22.1329V64.2739Z" fill="currentColor"/>
<path d="M44.162 66.2584L43.4816 68.1861H43.4249C43.3115 67.7514 43.1037 67.09 42.7635 66.2962L39.116 57.1302H35.5441V71.7391H37.9065V62.7243C37.9065 62.1574 37.9065 61.5148 37.8876 60.721C37.8687 60.3242 37.8309 60.0218 37.812 59.795H37.8687C37.982 60.362 38.1143 60.7777 38.2088 61.0423L42.5934 71.7013H44.2565L48.6032 60.9478C48.6977 60.7021 48.7922 60.2108 48.8867 59.795H48.9434C48.8867 60.8722 48.8489 61.8361 48.83 62.4219V71.6824H51.3436V57.0925H47.904L44.162 66.2584ZM53.7248 61.2124H56.1817V71.6824H53.7248V61.2124ZM54.9722 56.7901C54.5564 56.7901 54.2162 56.9413 53.9327 57.2058C53.6492 57.4704 53.498 57.8106 53.498 58.2264C53.498 58.6233 53.6492 58.9634 53.9327 59.228C54.2162 59.4926 54.5564 59.6249 54.9722 59.6249C55.3879 59.6249 55.747 59.4737 56.0116 59.228C56.2951 58.9634 56.4463 58.6233 56.4463 58.2264C56.4463 57.8295 56.2951 57.4893 56.0116 57.2058C55.7659 56.9413 55.4068 56.7901 54.9722 56.7901ZM64.8941 61.1179C64.4405 61.0234 63.968 60.9667 63.5145 60.9667C62.3994 60.9667 61.3789 61.2124 60.5284 61.7038C59.678 62.1952 58.9976 62.8755 58.563 63.726C58.1094 64.5953 57.8826 65.597 57.8826 66.7498C57.8826 67.7514 58.1094 68.6397 58.5441 69.4523C58.9787 70.2461 59.5835 70.8886 60.3961 71.3233C61.171 71.758 62.0781 71.9848 63.0987 71.9848C64.2704 71.9848 65.2721 71.7391 66.0658 71.2855L66.0847 71.2666V68.9988L65.9902 69.0744C65.6311 69.3389 65.2154 69.5657 64.7996 69.698C64.3649 69.8492 63.968 69.9248 63.6279 69.9248C62.6451 69.9248 61.8703 69.6413 61.3222 69.0177C60.7552 68.4129 60.4717 67.5813 60.4717 66.5419C60.4717 65.4647 60.7552 64.6142 61.3411 63.9905C61.927 63.3669 62.7018 63.0456 63.6468 63.0456C64.4405 63.0456 65.2532 63.3102 65.9902 63.8394L66.0847 63.915V61.5148L66.0658 61.4959C65.7445 61.3636 65.3855 61.2124 64.8941 61.1179ZM73.0017 61.0423C72.3969 61.0423 71.83 61.2313 71.3386 61.6282C70.9228 61.9684 70.6394 62.4597 70.3937 63.0456H70.3748V61.2124H67.9179V71.6824H70.3748V66.334C70.3748 65.4269 70.5638 64.6709 70.9795 64.1228C71.3953 63.5559 71.9245 63.2724 72.567 63.2724C72.7938 63.2724 73.0206 63.3291 73.3041 63.3669C73.5687 63.4425 73.7577 63.5181 73.89 63.6126L73.9845 63.6882V61.2313L73.9278 61.2124C73.7577 61.099 73.4175 61.0423 73.0017 61.0423ZM79.6919 60.9856C77.9721 60.9856 76.5925 61.4959 75.6287 62.4975C74.6459 63.4992 74.1734 64.8788 74.1734 66.6175C74.1734 68.2428 74.6648 69.5657 75.6098 70.5296C76.5547 71.4745 77.8398 71.9659 79.4462 71.9659C81.1282 71.9659 82.4701 71.4556 83.4339 70.4351C84.4166 69.4145 84.8891 68.0538 84.8891 66.3718C84.8891 64.7087 84.4355 63.3858 83.5095 62.4219C82.6213 61.4581 81.3172 60.9856 79.6919 60.9856ZM81.6574 69.0366C81.2038 69.6224 80.4857 69.9059 79.5974 69.9059C78.7092 69.9059 77.991 69.6224 77.4808 68.9988C76.9705 68.4129 76.7248 67.5624 76.7248 66.4852C76.7248 65.3702 76.9894 64.5197 77.4808 63.915C77.991 63.3102 78.6903 63.0078 79.5785 63.0078C80.4479 63.0078 81.1282 63.2913 81.6196 63.8772C82.111 64.463 82.3756 65.3135 82.3756 66.4285C82.3378 67.5624 82.1299 68.4507 81.6574 69.0366ZM90.3698 65.5592C89.5949 65.2379 89.1036 64.9922 88.8768 64.7843C88.6878 64.5953 88.5933 64.3307 88.5933 63.9905C88.5933 63.7071 88.7067 63.4236 88.9902 63.2346C89.2737 63.0456 89.5949 62.9511 90.0674 62.9511C90.4832 62.9511 90.9179 63.0267 91.3336 63.1401C91.7494 63.2535 92.1274 63.4236 92.4298 63.6504L92.5243 63.726V61.4203L92.4676 61.4014C92.1841 61.288 91.8061 61.1746 91.3525 61.0801C90.899 61.0045 90.4832 60.9667 90.143 60.9667C88.9713 60.9667 88.0074 61.2502 87.2515 61.8739C86.4955 62.4597 86.1364 63.2535 86.1364 64.1795C86.1364 64.6709 86.212 65.1056 86.3821 65.4647C86.5522 65.8237 86.7979 66.1639 87.1381 66.4474C87.4783 66.712 87.9696 67.0144 88.65 67.2979C89.217 67.5435 89.6516 67.7325 89.9162 67.8837C90.1808 68.0349 90.3509 68.205 90.4832 68.3373C90.5777 68.4885 90.6344 68.6775 90.6344 68.9232C90.6344 69.6224 90.1052 69.9626 89.028 69.9626C88.6122 69.9626 88.1775 69.887 87.6673 69.7169C87.157 69.5468 86.6845 69.3011 86.2876 69.0177L86.1931 68.9421V71.3422L86.2498 71.3611C86.6089 71.5312 87.0436 71.6446 87.5728 71.7769C88.1019 71.8714 88.5744 71.947 88.9902 71.947C90.2564 71.947 91.2958 71.6635 92.0329 71.0398C92.7889 70.4351 93.1857 69.6602 93.1857 68.6586C93.1857 67.9593 92.9968 67.3357 92.581 66.8632C92.0329 66.4096 91.3525 65.9371 90.3698 65.5592ZM99.6681 60.9856C97.9483 60.9856 96.5686 61.4959 95.6048 62.4975C94.641 63.4992 94.1496 64.8788 94.1496 66.6175C94.1496 68.2428 94.6409 69.5657 95.5859 70.5296C96.5308 71.4745 97.816 71.9659 99.4224 71.9659C101.104 71.9659 102.446 71.4556 103.41 70.4351C104.393 69.4145 104.865 68.0538 104.865 66.3718C104.865 64.7087 104.412 63.3858 103.486 62.4219C102.597 61.4581 101.293 60.9856 99.6681 60.9856ZM101.615 69.0366C101.161 69.6224 100.443 69.9059 99.5547 69.9059C98.6475 69.9059 97.9483 69.6224 97.438 68.9988C96.9277 68.4129 96.682 67.5624 96.682 66.4852C96.682 65.3702 96.9466 64.5197 97.438 63.915C97.9483 63.3102 98.6475 63.0078 99.5358 63.0078C100.386 63.0078 101.085 63.2913 101.577 63.8772C102.068 64.463 102.333 65.3135 102.333 66.4285C102.333 67.5624 102.087 68.4507 101.615 69.0366ZM118 63.2346V61.2124H115.524V58.113L115.449 58.1319L113.105 58.8311L113.048 58.85V61.2124H109.344V59.8895C109.344 59.2847 109.495 58.8123 109.76 58.5099C110.025 58.2075 110.422 58.0563 110.913 58.0563C111.253 58.0563 111.612 58.1319 112.009 58.302L112.104 58.3587V56.2231L112.047 56.2042C111.707 56.0908 111.253 56.0152 110.667 56.0152C109.93 56.0152 109.288 56.1853 108.702 56.4688C108.116 56.7901 107.681 57.2247 107.36 57.8106C107.039 58.3776 106.869 59.0201 106.869 59.7572V61.2124H105.149V63.2157H106.869V71.6824H109.344V63.2346H113.048V68.6208C113.048 70.832 114.088 71.947 116.167 71.947C116.507 71.947 116.866 71.8903 117.206 71.8336C117.565 71.758 117.83 71.6635 117.981 71.5879L118 71.569V69.5468L117.906 69.6224C117.754 69.7169 117.622 69.7925 117.395 69.8492C117.206 69.9059 117.036 69.9248 116.904 69.9248C116.412 69.9248 116.072 69.8114 115.827 69.5279C115.6 69.2633 115.486 68.8287 115.486 68.1861V63.2346H118Z" fill="currentColor"/>
</svg>
