<svg width="128" height="128" viewBox="0 0 128 128" fill="none" xmlns="http://www.w3.org/2000/svg">
<path d="M6.30134 88.2444H0V39.2081H16.7119C20.8668 39.2081 24.4623 40.5893 27.4986 43.3515C30.5347 46.1139 32.0528 49.5951 32.0528 53.7954C32.0528 57.9957 30.5347 61.477 27.4986 64.2393C24.4625 67.0017 20.8668 68.383 16.7119 68.3828H6.30147L6.30134 88.2444ZM6.30134 62.3573H16.8478C19.4965 62.3573 21.62 61.4669 23.2182 59.6861C24.8164 57.9055 25.6155 55.9422 25.6155 53.7965C25.6155 51.6507 24.8164 49.6874 23.2182 47.9068C21.62 46.1261 19.4965 45.2357 16.8477 45.2357H6.30147L6.30134 62.3573ZM44.4091 46.2639C43.5424 47.1307 42.4928 47.5641 41.2605 47.5639C40.028 47.5639 38.9781 47.1303 38.1107 46.2629C37.2433 45.3956 36.8097 44.3453 36.8097 43.1122C36.8097 41.8791 37.2434 40.829 38.1107 39.9616C38.9781 39.094 40.028 38.6604 41.2605 38.6604C42.4928 38.6604 43.5427 39.0941 44.4101 39.9614C45.2775 40.8289 45.7111 41.8791 45.7111 43.1121C45.7111 44.3453 45.2771 45.396 44.4091 46.2641V46.2639ZM44.4107 88.2444H38.1094V54.6868H44.4107V88.2444ZM80.6189 88.2444H73.2223L64.9353 75.8485L56.7863 88.2444H49.3895L61.2381 71.1918L49.6634 54.6868H56.7864L65.0733 66.5352L72.9486 54.6868H80.3453L68.6348 71.1918L80.6189 88.2444ZM100.253 89.3396C95.1837 89.3396 91.0628 87.6505 87.8901 84.2722C84.7174 80.8941 83.1311 76.6252 83.1312 71.4656C83.1312 66.5806 84.6718 62.38 87.7533 58.8638C90.8346 55.3476 94.7727 53.5895 99.5672 53.5895C104.544 53.5895 108.528 55.2104 111.518 58.452C114.508 61.6936 116.003 66.0315 116.003 71.4656L115.934 72.6298H89.4305C89.6129 76.0086 90.743 78.6797 92.8205 80.6429C94.898 82.6062 97.3293 83.5878 100.115 83.5878C104.635 83.5878 107.694 81.6698 109.292 77.8339L114.908 80.1623C113.811 82.7651 112.008 84.9453 109.497 86.703C106.986 88.4608 103.905 89.3396 100.253 89.3396ZM109.292 67.4256C109.155 65.507 108.277 63.6803 106.656 61.9455C105.034 60.2107 102.626 59.3434 99.4292 59.3434C97.1009 59.3434 95.0809 60.074 93.3691 61.5348C91.6573 62.9958 90.4818 64.9594 89.8422 67.4256H109.292ZM128 88.2444H121.699V39.2081H128V88.2444Z" fill="currentColor"/>
</svg>
