<svg width="128" height="128" viewBox="0 0 128 128" fill="none" xmlns="http://www.w3.org/2000/svg">
<g clip-path="url(#clip0_328_270)">
<path d="M17.2002 67.2843V66.2588H20.7948V67.5631C20.792 67.7345 20.826 67.9045 20.8944 68.0616C20.9629 68.2188 21.0642 68.3594 21.1916 68.4741C21.319 68.5889 21.4695 68.675 21.633 68.7267C21.7965 68.7784 21.9692 68.7945 22.1394 68.7739C22.4302 68.8134 22.7252 68.7421 22.9659 68.5743C23.2067 68.4065 23.3755 68.1545 23.439 67.8681C23.5352 67.54 23.5271 67.1901 23.4156 66.8669C22.7199 65.1181 17.9661 64.3265 17.3622 61.6009C17.2392 61.0021 17.2316 60.3854 17.3397 59.7838C17.7105 57.5952 19.6347 56.8036 22.0233 56.8036C23.925 56.8036 26.5458 57.2462 26.5458 60.1805V61.1358H23.2068V60.2975C23.2169 60.1322 23.191 59.9667 23.1311 59.8124C23.0711 59.6581 22.9784 59.5186 22.8594 59.4034C22.7404 59.2883 22.5978 59.2003 22.4415 59.1455C22.2852 59.0906 22.1189 59.0703 21.954 59.0858C21.6724 59.0548 21.3895 59.1311 21.1617 59.2995C20.934 59.468 20.7782 59.7161 20.7255 59.9943C20.688 60.2266 20.6959 60.464 20.7489 60.6933C21.1422 62.2531 26.2218 63.0924 26.7789 65.9107C26.9181 66.6411 26.9257 67.3905 26.8014 68.1235C26.4765 70.358 24.4821 71.1964 22.071 71.1964C19.5402 71.1964 17.2002 70.2879 17.2002 67.2843ZM60.753 67.2384V66.2129H64.3017V67.4939C64.2961 67.6637 64.3273 67.8327 64.3931 67.9894C64.4589 68.1461 64.5578 68.2867 64.683 68.4017C64.8082 68.5166 64.9567 68.6032 65.1185 68.6555C65.2802 68.7078 65.4514 68.7246 65.6202 68.7047C65.9084 68.7476 66.2022 68.6803 66.4429 68.5162C66.6837 68.3522 66.8537 68.1033 66.9189 67.8195C67.0151 67.4991 67.0072 67.1564 66.8964 66.8408C66.2232 65.1181 61.5153 64.322 60.9132 61.6009C60.79 61.0101 60.7821 60.401 60.8898 59.8072C61.2633 57.642 63.1902 56.8504 65.5302 56.8504C67.4094 56.8504 70.0059 57.3163 70.0059 60.2039V61.1358H66.6903V60.3208C66.7009 60.1576 66.6762 59.9941 66.618 59.8412C66.5597 59.6884 66.4693 59.5498 66.3528 59.435C66.2362 59.3201 66.0964 59.2317 65.9426 59.1756C65.7889 59.1196 65.6249 59.0972 65.4618 59.1101C65.1853 59.0734 64.9054 59.1451 64.6806 59.3101C64.4558 59.4751 64.3036 59.7206 64.2558 59.9952C64.2179 60.2274 64.2255 60.4648 64.2783 60.6942C64.6491 62.254 69.6783 63.0699 70.239 65.8639C70.3781 66.5864 70.3857 67.3281 70.2615 68.0534C69.9366 70.2897 67.9656 71.1047 65.5815 71.1047C63.0732 71.1065 60.753 70.1952 60.753 67.2384ZM73.4619 67.7286C73.4296 67.4344 73.4221 67.138 73.4394 66.8426V57.1994H76.8252V67.1439C76.8208 67.3152 76.8283 67.4865 76.8477 67.6567C76.9233 67.9371 77.0892 68.1848 77.3198 68.3615C77.5504 68.5381 77.8329 68.6338 78.1234 68.6338C78.414 68.6338 78.6965 68.5381 78.9271 68.3615C79.1577 68.1848 79.3236 67.9371 79.3992 67.6567C79.4193 67.4865 79.4271 67.3152 79.4226 67.1439V57.1994H82.8102V66.8408C82.8102 67.0972 82.7868 67.5865 82.7868 67.7268C82.5555 70.2456 80.5836 71.0552 78.1257 71.0552C75.6678 71.0552 73.6941 70.2411 73.4619 67.7268V67.7286ZM101.339 67.5883C101.304 67.293 101.288 66.9959 101.292 66.6987V61.0423C101.292 60.8093 101.314 60.3901 101.338 60.1562C101.639 57.642 103.657 56.8504 106.046 56.8504C108.412 56.8504 110.498 57.642 110.731 60.1571C110.759 60.4516 110.766 60.7477 110.753 61.0432V61.4813H107.368V60.74C107.368 60.5681 107.353 60.3964 107.322 60.2273C107.233 59.9433 107.055 59.6952 106.815 59.519C106.576 59.3429 106.286 59.2479 105.988 59.2479C105.69 59.2479 105.4 59.3429 105.16 59.519C104.92 59.6952 104.743 59.9433 104.654 60.2273C104.615 60.4348 104.6 60.646 104.608 60.857V67.0045C104.604 67.1758 104.612 67.3471 104.632 67.5172C104.712 67.8222 104.898 68.0885 105.158 68.2682C105.417 68.4479 105.732 68.5293 106.046 68.4978C106.354 68.5306 106.663 68.4491 106.916 68.2689C107.168 68.0886 107.345 67.8221 107.413 67.5199C107.445 67.3509 107.453 67.1784 107.437 67.0072V65.048H106.069V63.0915H110.8V66.6987C110.804 66.9944 110.788 67.2901 110.753 67.5838C110.522 70.0288 108.413 70.8906 106.046 70.8906C103.678 70.8906 101.57 70.0315 101.339 67.5865V67.5883ZM54.1443 70.6369L54.0543 58.2006L51.7323 70.6369H48.3465L46.0497 58.2006L45.9597 70.6369H42.618L42.8961 57.2228H48.3465L50.0394 67.7035L51.7323 57.2228H57.1818L57.4833 70.6369H54.1443ZM36.3333 70.6369L34.5243 58.2006L32.6685 70.6369H29.0514L31.5102 57.2228H37.4709L39.9297 70.6369H36.3333ZM93.0126 70.4975L89.6502 59.3421L89.8356 70.4966H86.5416V57.2228H91.5042L94.6542 68.0291L94.4733 57.2228H97.7898V70.4984L93.0126 70.4975Z" fill="currentColor"/>
</g>
<defs>
<clipPath id="clip0_328_270">
<rect width="108" height="28.8" fill="currentColor" transform="translate(10 49.6)"/>
</clipPath>
</defs>
</svg>
