<svg width="128" height="128" viewBox="0 0 128 128" fill="none" xmlns="http://www.w3.org/2000/svg">
<path d="M51.0631 76.9997C47.8029 76.9997 44.7765 75.3954 42.7564 72.4202C41.2302 70.1725 40.4968 67.1193 40.4968 63.9769C40.4968 60.8727 41.2618 57.7985 42.7562 55.5626C44.6323 52.757 47.9446 51 51.0631 51C54.5142 51 57.2764 52.4264 59.388 55.5703C60.8903 57.8074 61.6166 60.8679 61.6166 63.9772C61.6166 66.9909 60.8458 70.2003 59.388 72.4202C57.4217 75.4147 54.3317 76.9997 51.0631 76.9997V73.5705C52.7936 73.5705 54.3987 72.5902 55.5198 70.7599C56.633 68.9421 57.1517 66.7077 57.1517 63.9769C57.1517 61.3608 56.5922 58.9149 55.5198 57.1802C54.4137 55.3926 52.7702 54.3868 51.0631 54.3868C49.3508 54.3868 47.7062 55.3823 46.5993 57.1802C45.5327 58.9143 44.9717 61.3673 44.9717 63.9769C44.9717 66.5784 45.5392 69.0299 46.5993 70.7602C47.7071 72.5685 49.3459 73.5705 51.0631 73.5705V76.9997ZM27.2341 51.0125C25.4901 51.0125 23.5089 51.5477 21.8254 52.7813C20.2717 53.9188 19 55.7586 19 58.8085C18.9993 61.5553 20.0632 63.1641 20.0343 63.1196C20.4868 63.8031 21.2153 64.967 23.1199 65.6505C23.9711 65.956 25.791 66.4251 27.6033 66.7359C29.4022 67.0472 31.1726 67.3432 31.8937 67.6427C32.4666 67.882 33.4289 68.2079 33.4289 69.9794C33.4289 71.7438 32.4151 72.2824 32.2389 72.3992C32.0628 72.5134 30.8466 73.4291 28.6602 73.4291C27.046 73.4291 25.1054 72.6326 24.398 72.2174C23.5826 71.7412 22.7272 71.1113 21.9293 69.5121C21.7309 69.1156 21.4179 68.0252 21.4179 66.9455H19.4392V76.0434H21.6386V74.8142C21.6386 74.6742 21.7452 74.0987 22.1144 74.3724C22.5738 74.7149 23.9224 75.5959 25.3324 76.0789C26.4884 76.4757 27.2339 76.7601 28.6712 76.7601C31.0163 76.7601 32.2761 76.1332 33.147 75.7252C33.9675 75.3397 34.9813 74.6476 35.8049 73.5699C36.2509 72.9872 37.229 71.4936 37.229 68.7823C37.229 66.1799 36.3778 64.5646 36.0783 64.0732C35.6704 63.4037 35.1722 62.8847 34.653 62.4847C34.2006 62.1354 33.4867 61.7158 32.9027 61.4812C31.769 61.0245 29.2056 60.4611 27.9798 60.2506C26.6943 60.0302 24.4643 59.7272 23.5737 59.2749C23.3037 59.1376 22.7533 58.7074 22.7533 57.6588C22.7533 56.913 23.005 56.2808 23.5025 55.7698C24.2923 54.9579 25.8875 54.4532 27.5504 54.4532C29.5163 54.4413 31.1811 55.1788 32.2401 55.9558C32.6003 56.2197 33.0217 56.5987 33.3564 57.047C33.7342 57.5523 34.2644 58.6024 34.4561 60.067H36.2327V52.1476H34.249V53.0681C34.249 53.3652 34.062 53.7513 33.7083 53.4322C32.8206 52.668 30.3107 51.0193 27.2337 51.0125M70.7041 52.4516L80.3804 66.7804L80.281 57.133C80.2712 55.868 80.1292 55.3399 79.2953 55.3399H77.476V52.4539H85.7495V55.3399H83.9748C83.1243 55.3399 83.0706 55.7861 83.0603 57.133L83.2103 75.5668H80.3769L69.2317 59.2453L69.2341 70.8287C69.2439 72.0878 69.2798 72.6809 70.0705 72.6809H72.0575V75.5656H63.9322V72.6812H65.8316C66.5411 72.6812 66.513 71.5713 66.513 70.7632V57.2428C66.513 56.37 66.4383 55.3419 65.3243 55.3419H63.7831V52.4516H70.7041ZM95.2036 72.6756C95.2813 72.6756 95.6265 72.6593 95.6934 72.6257C95.7775 72.584 95.8551 72.5129 95.9208 72.4171C95.9865 72.3214 96.0388 72.2034 96.074 72.0712C96.0993 71.9734 96.1119 71.5404 96.1119 71.4464L96.1134 66.8856C96.1134 66.7759 96.1085 66.7285 95.995 66.4841C95.8703 66.2172 90.9266 57.0245 90.7004 56.6197C90.4193 56.1171 89.926 55.3402 89.1763 55.3402H87.4571V52.453H97.1596V55.3366H95.9899C95.7194 55.3366 95.5396 55.7577 95.7707 56.2256C95.7707 56.2256 99.0351 62.633 99.066 62.7C99.0964 62.7682 99.1224 62.7845 99.164 62.7222C99.2048 62.6585 102.51 56.2843 102.536 56.2339C102.693 55.9249 102.587 55.3399 102.248 55.3399H101.048V52.453H109V55.3399H107.223C106.579 55.3399 106.317 55.5356 105.832 56.435C105.61 56.8466 100.614 66.2045 100.478 66.458C100.407 66.5906 100.413 66.7753 100.413 66.885V71.4452C100.413 71.5377 100.425 71.9713 100.451 72.0685C100.486 72.2009 100.538 72.3191 100.604 72.4149C100.67 72.5106 100.748 72.5817 100.832 72.6231C100.899 72.6569 101.239 72.6735 101.317 72.6735H103.134V75.56H93.4817V72.6732L95.204 72.6756H95.2036Z" fill="currentColor"/>
</svg>
